<?xml version="1.0" encoding="UTF-8"?>
<svg id="Camada_1" data-name="Camada 1" xmlns="http://www.w3.org/2000/svg" viewBox="0 0 48 48">
  <defs>
    <style>
      .cls-1 {
        fill: #faa01e;
      }

      .cls-2 {
        fill: #eb1e50;
      }

      .cls-3 {
        fill: #afc837;
      }
    </style>
  </defs>
  <path class="cls-2" d="M47.72,2.5c.3,2.26-.28,4.02-1.31,5.65-1.4,2.21-3.4,3.81-5.52,5.27-3.72,2.57-7.8,4.46-11.88,6.36-4.36,2.02-8.71,4.02-12.32,7.3-1.54,1.39-3,2.86-4.09,4.63-2.5,4.05-2.14,8.04.32,11.97.33.52.68,1.02,1.03,1.54-.38.34-.66.05-.94-.05-2.18-.78-4.27-1.83-6.11-3.16-3.04-2.21-5.56-4.98-6.41-8.8-.86-3.86.25-7.3,2.76-10.27,2.7-3.21,6.32-5.07,10.14-6.59,3.03-1.2,6.18-1.98,9.35-2.7,5.67-1.28,11.39-2.35,16.72-4.81,3.15-1.45,6.15-3.09,8.27-6.33Z"/>
  <path class="cls-3" d="M45.46,17.86c.27.91.03,1.68-.31,2.42-.92,2.02-2.58,3.37-4.37,4.56-3.43,2.29-7.29,3.73-11,5.47-3.48,1.64-6.86,3.47-9.57,6.3-2.27,2.37-3.05,5.13-2.09,8.32.05.16.13.31-.1.52-1.36-1.08-2.27-2.49-2.91-4.06-1.96-4.87-.39-9.5,4.16-12.45,3.13-2.03,6.63-3.12,10.18-4.11,3.69-1.03,7.49-1.7,10.99-3.35,1.77-.83,3.47-1.73,4.64-3.37.07-.09.2-.14.36-.26Z"/>
  <path class="cls-1" d="M38.29,30.28c.17,1.28-.5,1.96-1.17,2.61-1.43,1.4-3.19,2.29-4.95,3.17-2.08,1.04-4.19,2.02-6.04,3.48-1.01.8-1.9,1.69-2.5,2.86-.47.92-.27,1.9-.33,3.1-1.48-1.4-2.25-2.87-2.16-4.71.1-2.03,1.19-3.48,2.87-4.55,2.34-1.49,5.01-2.08,7.65-2.75,1.63-.41,3.21-.91,4.7-1.71.69-.37,1.22-.94,1.93-1.52Z"/>
</svg>